<svg width="12" height="12" viewBox="0 0 12 12" fill="none" xmlns="http://www.w3.org/2000/svg">
<path d="M6.01 11H6C5.825 11 5.66 10.93 5.54 10.8C5.445 10.7 4.59 9.795 3.735 8.655C2.585 7.11 2 5.875 2 4.995C2 2.79 3.795 1 6 1C8.205 1 10 2.79 10 4.995C10 5.53 9.795 6.185 9.385 6.945C8.995 7.675 8.405 8.525 7.63 9.465L7.625 9.47L6.475 10.78C6.36 10.92 6.19 11 6.01 11ZM6 6.86C7.035 6.86 7.87 6.02 7.87 4.99C7.87 3.96 7.035 3.125 6 3.125C4.965 3.125 4.125 3.96 4.125 4.995C4.125 6.03 4.965 6.86 6 6.86Z" fill="#898DC7"/>
</svg>
