<svg width="76" height="23" viewBox="0 0 76 23" fill="none" xmlns="http://www.w3.org/2000/svg">
<g filter="url(#filter0_di_1110_9676)">
<path d="M4.97 14.84H3.404L5.006 11.744H4.358L3.368 12.446L3.44 11.744L3.584 9.908H4.394L4.466 9.206L4.646 7.352H9.416L9.47 6.506H5.222L4.25 7.19L4.304 6.506L4.466 4.634H9.632L9.686 3.914H14.42L13.412 4.598V4.634H17.66L18.65 3.95L18.578 4.652L18.434 6.506H13.268L13.196 7.352H17.066L18.056 6.65L17.984 7.352L17.822 9.224H13.016L12.962 9.908H17.642L18.596 9.224L18.542 9.926L18.362 11.744H16.958L17.984 14.696H16.382L16.076 18.116C16.052 18.452 15.914 18.734 15.662 18.962C15.41 19.19 15.11 19.304 14.762 19.304H4.592L4.97 14.84ZM9.164 9.908L9.236 9.224H5.384L4.412 9.908H9.164ZM13.502 12.716L13.178 11.744H8.804L8.3 12.716H13.502ZM12.908 15.128L12.98 14.426H8.48L8.408 15.128H12.908ZM12.692 17.504L12.782 16.802H8.282L8.192 17.504H12.692ZM22.124 6.74L22.286 4.472H24.338L24.41 3.734H29L28.046 4.418L28.028 4.472H31.196L31.268 3.734H35.84L34.886 4.418V4.472H36.056L37.028 3.788L36.974 4.472L36.776 6.776H34.67L34.616 7.424H30.944L30.98 6.776H27.83L27.776 7.424H24.086L24.14 6.776H22.988L22.052 7.442L22.124 6.74ZM21.782 15.164L23.114 13.292H21.422L21.566 11.546L23.96 8.108H27.506L25.4 11.204L27.866 11.294L25.274 15.164H27.308L27.128 17.018H21.62L21.782 15.164ZM30.548 17.216H32.348L32.87 11.312H31.556L31.142 12.428H27.884L29.432 8.162H32.708L32.33 9.188H35.084C35.456 9.188 35.768 9.332 36.02 9.62C36.284 9.896 36.398 10.226 36.362 10.61L35.714 18.278C35.678 18.626 35.534 18.914 35.282 19.142C35.03 19.37 34.736 19.484 34.4 19.484H30.962L30.548 17.216ZM27.938 13.274H30.998L31.196 16.46H28.136L27.938 13.274ZM21.134 17.54L27.056 17.378L26.894 19.286L20.972 19.484L21.134 17.54ZM40.124 6.344L40.286 4.382H45.704L45.74 3.842H50.438L49.7 4.382H53.93L54.938 3.626L54.866 4.382L54.686 6.344H41.06L40.052 7.118L40.124 6.344ZM40.034 8.252H42.086L41.708 6.758H45.236L45.614 8.27H48.656L49.286 6.758H52.814L52.166 8.288H52.868C53.252 8.288 53.57 8.432 53.822 8.72C54.086 8.996 54.2 9.326 54.164 9.71L53.408 18.368C53.384 18.716 53.246 19.004 52.994 19.232C52.742 19.46 52.448 19.574 52.112 19.574H48.962L48.836 17.99H50.294L50.654 13.958H49.79L49.574 16.55C49.502 17.354 49.064 17.756 48.26 17.756H43.022L43.364 13.958H42.644L42.14 19.574H39.044L40.034 8.252ZM43.994 10.772H46.55L45.362 12.95H48.134L47.324 10.772H49.88L50.726 13.04L50.96 10.43H42.95L42.716 13.094L43.994 10.772ZM47.054 16.064L47.162 14.678H45.848L45.74 16.064H47.054ZM63.164 6.596C63.2 6.248 63.344 5.96 63.596 5.732C63.848 5.504 64.142 5.39 64.478 5.39H67.376L67.286 3.446H70.526L70.67 5.39H71.138L71.048 3.626H72.668L72.74 5.39H72.974L72.758 7.964H71.876L71.84 10.646L72.578 10.016L72.29 13.274L71.768 13.706L71.678 19.16H69.032L69.068 16.046L68.438 16.586L68.726 13.328L69.122 12.968L69.212 7.964H65.738L65.648 9.098H67.376C67.76 9.098 68.078 9.242 68.33 9.53C68.594 9.806 68.708 10.13 68.672 10.502L68.024 17.954C68 18.29 67.862 18.572 67.61 18.8C67.358 19.04 67.064 19.16 66.728 19.16H65.396L65.306 17.072H65.648L66.116 11.636H65.414L64.766 19.16H62.066L63.164 6.596ZM57.08 19.16L57.296 16.802L57.908 16.748L58.592 8.864L57.908 9.332L57.962 8.63L58.16 6.344H58.79L59.024 3.626H63.218L62.264 4.274L62.102 6.146L62.804 5.678L62.714 6.38L62.534 8.63H61.886L61.238 16.172L61.868 15.74L61.796 16.388L61.616 18.674L57.98 19.07L57.026 19.754L57.08 19.16Z" fill="url(#paint0_linear_1110_9676)"/>
</g>
<defs>
<filter id="filter0_di_1110_9676" x="0.36792" y="0.445999" width="75.6062" height="22.308" filterUnits="userSpaceOnUse" color-interpolation-filters="sRGB">
<feFlood flood-opacity="0" result="BackgroundImageFix"/>
<feColorMatrix in="SourceAlpha" type="matrix" values="0 0 0 0 0 0 0 0 0 0 0 0 0 0 0 0 0 0 127 0" result="hardAlpha"/>
<feOffset/>
<feGaussianBlur stdDeviation="1.5"/>
<feComposite in2="hardAlpha" operator="out"/>
<feColorMatrix type="matrix" values="0 0 0 0 0 0 0 0 0 0 0 0 0 0 0 0 0 0 0.2 0"/>
<feBlend mode="normal" in2="BackgroundImageFix" result="effect1_dropShadow_1110_9676"/>
<feBlend mode="normal" in="SourceGraphic" in2="effect1_dropShadow_1110_9676" result="shape"/>
<feColorMatrix in="SourceAlpha" type="matrix" values="0 0 0 0 0 0 0 0 0 0 0 0 0 0 0 0 0 0 127 0" result="hardAlpha"/>
<feOffset/>
<feGaussianBlur stdDeviation="2"/>
<feComposite in2="hardAlpha" operator="arithmetic" k2="-1" k3="1"/>
<feColorMatrix type="matrix" values="0 0 0 0 1 0 0 0 0 1 0 0 0 0 1 0 0 0 0.25 0"/>
<feBlend mode="normal" in2="shape" result="effect2_innerShadow_1110_9676"/>
</filter>
<linearGradient id="paint0_linear_1110_9676" x1="2" y1="10" x2="74" y2="10" gradientUnits="userSpaceOnUse">
<stop stop-color="#FE5A71"/>
<stop offset="1" stop-color="#F3A69C"/>
</linearGradient>
</defs>
</svg>
