<svg width="24" height="24" viewBox="0 0 24 24" fill="none" xmlns="http://www.w3.org/2000/svg">
<path d="M4.75 16.8002V11.4522C4.75 10.8786 4.75569 10.7252 4.79061 10.5915C4.82627 10.4551 4.88557 10.3247 4.96624 10.2059L4.3457 9.78464L4.96624 10.2059C5.044 10.0913 5.15608 9.98501 5.58665 9.60826L10.3882 5.40687C10.7696 5.07315 11.0242 4.85106 11.2346 4.69373C11.4375 4.54203 11.5543 4.48589 11.6451 4.45903C11.8765 4.39061 12.1233 4.39061 12.3547 4.45903C12.4457 4.48594 12.5627 4.54219 12.7659 4.69411C12.9766 4.85165 13.2316 5.07408 13.6135 5.40826L18.4135 9.60826C18.8442 9.98509 18.9563 10.0913 19.034 10.2059C19.1139 10.3235 19.1729 10.4536 19.2089 10.5915C19.2439 10.7254 19.25 10.8797 19.25 11.4522V16.8037C19.25 17.375 19.2494 17.7585 19.2253 18.0539C19.2018 18.3406 19.16 18.4777 19.114 18.5681C18.9946 18.8024 18.803 18.9938 18.5669 19.114C18.4765 19.1601 18.3395 19.2019 18.0531 19.2253C17.7578 19.2495 17.3744 19.2501 16.8031 19.2501H7.19691C6.62558 19.2501 6.24198 19.2495 5.9465 19.2253C5.65973 19.2019 5.52263 19.1601 5.43229 19.114C5.19704 18.9942 5.00606 18.8032 4.88624 18.5681C4.84012 18.4775 4.79822 18.3402 4.77476 18.0529C4.75058 17.7569 4.75 17.3726 4.75 16.8002Z" stroke="#5D6766" stroke-width="1.5"/>
<path d="M14 16H10" stroke="#5D6766" stroke-width="1.5" stroke-linecap="round"/>
</svg>
