<svg width="42" height="23" viewBox="0 0 42 23" fill="none" xmlns="http://www.w3.org/2000/svg">
<path d="M0 10C0 4.47715 4.47715 0 10 0H42V13C42 18.5228 37.5228 23 32 23H0V10Z" fill="url(#paint0_linear_1110_8633)"/>
<path d="M0 10C0 4.47715 4.47715 0 10 0H42V13C42 18.5228 37.5228 23 32 23H0V10Z" fill="url(#paint1_linear_1110_8633)"/>
<path d="M0 10C0 4.47715 4.47715 0 10 0H42V13C42 18.5228 37.5228 23 32 23H0V10Z" fill="url(#paint2_linear_1110_8633)"/>
<path d="M0 10C0 4.47715 4.47715 0 10 0H42V13C42 18.5228 37.5228 23 32 23H0V10Z" fill="url(#paint3_linear_1110_8633)"/>
<path d="M0 10C0 4.47715 4.47715 0 10 0H42V13C42 18.5228 37.5228 23 32 23H0V10Z" fill="url(#paint4_linear_1110_8633)"/>
<path opacity="0.9" d="M8.624 11.234H9.534L9.59 10.492L8.498 10.576L8.666 8.84L9.744 8.728L9.856 7.594H9.45L8.708 8.112L8.764 7.566L8.918 5.83H9.996L10.108 4.682H13.174L12.418 5.214L12.376 5.83H12.53L13.286 5.298L13.244 5.858L13.09 7.594H12.222L12.138 8.532L13.02 8.448L12.866 10.184L11.998 10.268L11.816 12.186C11.7973 12.4473 11.69 12.6667 11.494 12.844C11.3073 13.0213 11.0833 13.11 10.822 13.11H8.834L8.624 11.234ZM18.046 13.04C17.7473 13.04 17.5 12.928 17.304 12.704C17.108 12.48 17.024 12.2187 17.052 11.92L17.444 7.398H16.506L16.128 9.26L16.954 9.484L16.772 11.262L15.806 10.968L15.4 13.026H12.964L13.51 10.296L13.174 10.184L13.328 8.448L13.846 8.574L14.07 7.426L13.356 7.916L13.412 7.384L13.58 5.62H14.42L14.616 4.682H17.038L16.842 5.62H18.914C19.2127 5.62 19.46 5.732 19.656 5.956C19.8613 6.17067 19.9547 6.42267 19.936 6.712L19.516 11.262H20.048L19.67 13.04H18.046ZM8.666 13.642H11.088L10.402 16.918H7.952L8.666 13.642ZM11.396 13.642H13.818L13.972 16.918H11.55L11.396 13.642ZM14.168 13.642H16.604L16.758 16.918H14.322L14.168 13.642ZM16.926 13.642H19.348L19.502 16.918H17.066L16.926 13.642ZM22.904 4.57H25.62L25.55 6.978H22.834L22.904 4.57ZM29.064 15.042H30.646L31.374 6.6H26.138L26.292 4.724H33.012C33.3107 4.724 33.558 4.83133 33.754 5.046C33.95 5.26067 34.0387 5.51733 34.02 5.816L33.138 16.106C33.11 16.3673 32.998 16.5867 32.802 16.764C32.606 16.9413 32.3773 17.03 32.116 17.03H29.092L29.064 15.042ZM22.764 7.524H25.214L24.374 17.03H21.952L22.764 7.524Z" fill="white"/>
<defs>
<linearGradient id="paint0_linear_1110_8633" x1="0" y1="11.5" x2="42" y2="11.5" gradientUnits="userSpaceOnUse">
<stop stop-color="#F1FF2F"/>
<stop offset="1" stop-color="#24DD6E"/>
</linearGradient>
<linearGradient id="paint1_linear_1110_8633" x1="29.75" y1="12.0901" x2="2.62671" y2="12.0901" gradientUnits="userSpaceOnUse">
<stop stop-color="#EF7384"/>
<stop offset="1" stop-color="#E7529B"/>
</linearGradient>
<linearGradient id="paint2_linear_1110_8633" x1="42.117" y1="11.5" x2="-7.14802e-07" y2="11.5" gradientUnits="userSpaceOnUse">
<stop stop-color="#5453F1"/>
<stop offset="1" stop-color="#9E5AF5"/>
</linearGradient>
<linearGradient id="paint3_linear_1110_8633" x1="0" y1="11.5" x2="42" y2="11.5" gradientUnits="userSpaceOnUse">
<stop stop-color="#2FFF89"/>
<stop offset="1" stop-color="#05CEB6"/>
</linearGradient>
<linearGradient id="paint4_linear_1110_8633" x1="29.75" y1="12.0901" x2="2.62671" y2="12.0901" gradientUnits="userSpaceOnUse">
<stop stop-color="#D47361"/>
<stop offset="1" stop-color="#CF2D6B"/>
</linearGradient>
</defs>
</svg>
