<svg width="24" height="11" viewBox="0 0 24 11" fill="none" xmlns="http://www.w3.org/2000/svg">
<path d="M2 3C2 1.34315 3.34315 0 5 0H21C22.6569 0 24 1.34315 24 3V8C24 9.65685 22.6569 11 21 11H0L1.83205 8.25192C1.94156 8.08766 2 7.89465 2 7.69722V3Z" fill="#D9D9D9"/>
<path d="M2 3C2 1.34315 3.34315 0 5 0H21C22.6569 0 24 1.34315 24 3V8C24 9.65685 22.6569 11 21 11H0L1.83205 8.25192C1.94156 8.08766 2 7.89465 2 7.69722V3Z" fill="url(#paint0_linear_4445_48858)"/>
<path d="M19.1568 2.58022V8.41979H17.9267V2.58022H19.1568ZM21 2.58022V3.52273H16.1123V2.58022H21Z" fill="white"/>
<path d="M15.8695 5.36364V5.64037C15.8695 6.08422 15.8077 6.48262 15.6843 6.83556C15.5609 7.1885 15.3867 7.48931 15.1618 7.73797C14.9369 7.98396 14.6681 8.17246 14.3554 8.30348C14.0455 8.43449 13.7012 8.5 13.3227 8.5C12.947 8.5 12.6027 8.43449 12.2901 8.30348C11.9801 8.17246 11.7113 7.98396 11.4837 7.73797C11.256 7.48931 11.0791 7.1885 10.9529 6.83556C10.8295 6.48262 10.7678 6.08422 10.7678 5.64037V5.36364C10.7678 4.91711 10.8295 4.51872 10.9529 4.16845C11.0764 3.81551 11.2505 3.51471 11.4754 3.26604C11.7031 3.01738 11.9719 2.82754 12.2818 2.69652C12.5945 2.56551 12.9387 2.5 13.3145 2.5C13.693 2.5 14.0372 2.56551 14.3472 2.69652C14.6599 2.82754 14.9287 3.01738 15.1536 3.26604C15.3812 3.51471 15.5568 3.81551 15.6802 4.16845C15.8064 4.51872 15.8695 4.91711 15.8695 5.36364ZM14.6228 5.64037V5.35561C14.6228 5.04545 14.594 4.77273 14.5364 4.53743C14.4788 4.30214 14.3938 4.10428 14.2814 3.94385C14.1689 3.78342 14.0318 3.6631 13.8699 3.58289C13.7081 3.5 13.523 3.45856 13.3145 3.45856C13.1061 3.45856 12.9209 3.5 12.7591 3.58289C12.6 3.6631 12.4642 3.78342 12.3518 3.94385C12.2421 4.10428 12.1584 4.30214 12.1008 4.53743C12.0432 4.77273 12.0144 5.04545 12.0144 5.35561V5.64037C12.0144 5.94786 12.0432 6.22059 12.1008 6.45856C12.1584 6.69385 12.2434 6.89305 12.3559 7.05615C12.4683 7.21658 12.6055 7.33824 12.7673 7.42112C12.9291 7.50401 13.1143 7.54545 13.3227 7.54545C13.5312 7.54545 13.7163 7.50401 13.8782 7.42112C14.04 7.33824 14.1758 7.21658 14.2855 7.05615C14.3952 6.89305 14.4788 6.69385 14.5364 6.45856C14.594 6.22059 14.6228 5.94786 14.6228 5.64037Z" fill="white"/>
<path d="M8.99492 4.95856V5.89706H5.8681V4.95856H8.99492ZM6.23427 2.58022V8.41979H5V2.58022H6.23427ZM9.87537 2.58022V8.41979H8.64521V2.58022H9.87537Z" fill="white"/>
<defs>
<linearGradient id="paint0_linear_4445_48858" x1="17" y1="5.78223" x2="1.50098" y2="5.78223" gradientUnits="userSpaceOnUse">
<stop stop-color="#FF4448"/>
<stop offset="1" stop-color="#FF6E70"/>
</linearGradient>
</defs>
</svg>
