<svg width="76" height="23" viewBox="0 0 76 23" fill="none" xmlns="http://www.w3.org/2000/svg">
<g filter="url(#filter0_di_1110_7055)">
<path d="M7.022 15.83L6.158 17.198H3.08L6.716 11.294H4.538L3.53 11.996L3.602 11.294L3.764 9.422H7.436L7.85 8.738H5.996L5.042 9.422L5.096 8.738L5.258 6.974H9.002L9.416 6.344L5.888 6.434L4.934 7.1L4.988 6.398L5.168 4.382L17.624 4.094L18.542 3.446L18.488 4.094L18.29 6.128L13.34 6.272L12.872 6.974H16.886L17.84 6.326L17.768 6.974L17.624 8.738H11.738L11.306 9.422H17.93L18.902 8.738L18.848 9.422L18.668 11.294H9.776L9.398 11.942H16.472C16.844 11.942 17.162 12.086 17.426 12.374C17.69 12.662 17.804 12.998 17.768 13.382L17.318 18.566C17.282 18.902 17.138 19.184 16.886 19.412C16.646 19.64 16.352 19.754 16.004 19.754H6.662L7.022 15.83ZM14.708 14.192L14.762 13.508H10.064L10.028 14.192H14.708ZM14.546 16.028L14.618 15.362H9.92L9.848 16.028H14.546ZM14.384 17.81L14.438 17.18H9.74L9.704 17.81H14.384ZM21.872 18.872L23.168 4.13H26.678L26.372 7.73H29.99L30.332 3.716H34.832L33.896 4.364L33.59 7.73H36.02L36.992 7.046L36.938 7.748L36.704 10.25H26.156L26.048 11.636H33.896C34.28 11.636 34.604 11.78 34.868 12.068C35.132 12.344 35.246 12.674 35.21 13.058L34.634 19.484H30.98L31.466 14.192H25.814L25.382 19.484H20.99L21.872 18.872ZM41.726 10.034H40.34L39.35 10.736L39.422 10.034L39.62 7.838H41.384L41.492 6.38H41.096L40.088 7.1L40.16 6.416L40.34 4.31L46.28 4.202L47.27 3.5L47.216 4.166L47.036 6.236L45.668 6.29L45.56 7.838H46.406L47.396 7.154L47.324 7.838L47.126 10.034H44.84L43.994 19.7H40.862L41.726 10.034ZM48.116 17.45H50.348L51.536 4.04H55.478L54.488 4.724L53.3 18.53C53.264 18.866 53.12 19.142 52.868 19.358C52.616 19.586 52.322 19.7 51.986 19.7H48.314L48.116 17.45ZM48.368 5.084H50.654L49.61 16.982H47.306L48.368 5.084ZM45.164 10.754H46.982L46.37 19.682H44.588L45.164 10.754ZM39.512 10.772H41.276L40.268 19.7H38.522L39.512 10.772ZM58.502 3.86H63.938C64.31 3.86 64.622 4.004 64.874 4.292C65.138 4.568 65.252 4.898 65.216 5.282L65.036 7.46C65.012 7.796 64.874 8.084 64.622 8.324C64.37 8.552 64.076 8.666 63.74 8.666H58.088L58.502 3.86ZM66.134 3.896H71.552C71.948 3.896 72.272 4.034 72.524 4.31C72.776 4.586 72.89 4.916 72.866 5.3L72.686 7.478C72.65 7.826 72.506 8.114 72.254 8.342C72.002 8.57 71.708 8.684 71.372 8.684H65.72L66.134 3.896ZM62.552 7.262L62.714 5.462H60.896L60.752 7.262H62.552ZM70.184 7.28L70.328 5.48H68.546L68.402 7.28H70.184ZM60.554 11.672H58.754L57.746 12.356L57.818 11.672L57.944 10.034H62.516L63.632 9.116H68.006L66.89 10.034H68.312L68.222 9.35H71.228L71.318 10.034H71.57L72.578 9.35L72.506 10.034L72.362 11.672H69.662L72.038 14.192H67.628L65.306 11.672H64.892L61.778 14.228H57.458L60.554 11.672ZM57.548 14.732H62.966C63.35 14.732 63.674 14.876 63.938 15.164C64.202 15.44 64.316 15.77 64.28 16.154L64.1 18.152C64.076 18.488 63.938 18.77 63.686 18.998C63.434 19.238 63.14 19.358 62.804 19.358H57.152L57.548 14.732ZM65.072 14.75H70.49C70.862 14.75 71.174 14.894 71.426 15.182C71.69 15.458 71.804 15.788 71.768 16.172L71.624 18.152C71.588 18.5 71.444 18.788 71.192 19.016C70.94 19.244 70.646 19.358 70.31 19.358H64.658L65.072 14.75ZM61.688 17.306L61.778 16.064H59.996L59.888 17.306H61.688ZM69.176 17.306L69.284 16.064H67.484L67.376 17.306H69.176Z" fill="url(#paint0_linear_1110_7055)"/>
</g>
<defs>
<filter id="filter0_di_1110_7055" x="0.0799561" y="0.446014" width="75.822" height="22.308" filterUnits="userSpaceOnUse" color-interpolation-filters="sRGB">
<feFlood flood-opacity="0" result="BackgroundImageFix"/>
<feColorMatrix in="SourceAlpha" type="matrix" values="0 0 0 0 0 0 0 0 0 0 0 0 0 0 0 0 0 0 127 0" result="hardAlpha"/>
<feOffset/>
<feGaussianBlur stdDeviation="1.5"/>
<feComposite in2="hardAlpha" operator="out"/>
<feColorMatrix type="matrix" values="0 0 0 0 0 0 0 0 0 0 0 0 0 0 0 0 0 0 0.2 0"/>
<feBlend mode="normal" in2="BackgroundImageFix" result="effect1_dropShadow_1110_7055"/>
<feBlend mode="normal" in="SourceGraphic" in2="effect1_dropShadow_1110_7055" result="shape"/>
<feColorMatrix in="SourceAlpha" type="matrix" values="0 0 0 0 0 0 0 0 0 0 0 0 0 0 0 0 0 0 127 0" result="hardAlpha"/>
<feOffset/>
<feGaussianBlur stdDeviation="2"/>
<feComposite in2="hardAlpha" operator="arithmetic" k2="-1" k3="1"/>
<feColorMatrix type="matrix" values="0 0 0 0 1 0 0 0 0 1 0 0 0 0 1 0 0 0 0.25 0"/>
<feBlend mode="normal" in2="shape" result="effect2_innerShadow_1110_7055"/>
</filter>
<linearGradient id="paint0_linear_1110_7055" x1="2" y1="10" x2="74" y2="10" gradientUnits="userSpaceOnUse">
<stop stop-color="#FE5A71"/>
<stop offset="1" stop-color="#F3A69C"/>
</linearGradient>
</defs>
</svg>
