<svg width="76" height="23" viewBox="0 0 76 23" fill="none" xmlns="http://www.w3.org/2000/svg">
<g filter="url(#filter0_di_1110_8303)">
<path d="M4.07 7.532C4.094 7.184 4.232 6.896 4.484 6.668C4.736 6.44 5.036 6.326 5.384 6.326H10.568L10.334 3.752H15.068L14.204 4.346L14.402 6.326H17.768L18.326 5.966H15.446L15.122 3.95H18.272L18.524 5.354L18.74 5.66L18.758 5.624V5.678L18.956 5.966H18.74L18.686 6.344L18.47 8.81H15.374L15.842 12.122L18.272 10.16L17.966 13.562L16.256 14.93L16.886 19.466H13.34L13.034 17.45L11.72 18.494L12.008 15.2L12.656 14.678L11.81 8.81H7.13L7.04 9.836H9.992C10.376 9.836 10.7 9.98 10.964 10.268C11.228 10.544 11.336 10.874 11.288 11.258L10.676 18.26C10.664 18.596 10.526 18.878 10.262 19.106C10.01 19.346 9.71 19.466 9.362 19.466H7.274L7.13 17.738H7.814L8.318 11.942H6.842L6.194 19.466H3.026L4.07 7.532ZM29.378 11.528L25.274 19.448H21.512L29.612 3.734H34.04L33.068 4.418L29.72 10.88H32.852L36.488 19.448L32.726 19.466L29.378 11.528ZM38.918 19.106L39.098 17.018H39.98L40.862 7.046H45.452L45.506 6.398H41.006L40.088 7.028L40.16 6.362L40.358 4.148H45.686L45.758 3.392H50.384L49.484 4.022L49.466 4.148H54.218L55.172 3.482L55.1 4.166L54.92 6.398H49.286L49.214 7.046H52.778C53.162 7.046 53.48 7.19 53.732 7.478C53.996 7.754 54.11 8.084 54.074 8.468L53.336 16.892L54.092 16.352L54.038 17.072L53.84 19.178H39.764L38.828 19.826L38.918 19.106ZM50.096 9.674L50.15 8.81H44.336L44.282 9.674H50.096ZM49.88 12.086L49.934 11.312H44.12L44.066 12.086H49.88ZM49.664 14.534L49.718 13.706H43.904L43.85 14.534H49.664ZM49.448 17.018L49.502 16.172H43.688L43.616 17.018H49.448ZM66.008 9.944H63.38L62.39 10.646L62.444 9.944L62.588 8.27H66.134L66.332 5.93L63.974 6.002L63.614 6.272H65.738L65.954 7.964H63.542L63.326 6.452L63.002 6.686L63.056 6.02L63.218 4.364L71.984 4.112L72.992 3.41L72.92 4.13L72.776 5.768L69.464 5.858L69.248 8.27H71.822L72.794 7.568L72.74 8.27L72.596 9.944H69.122L68.87 12.608H65.756L66.008 9.944ZM57.008 17.594H57.62L57.782 15.722L57.134 16.172L57.188 15.56L57.404 13.328L57.98 13.238L58.286 9.872L57.638 10.34L57.71 9.638L57.908 7.352H58.502L58.79 4.004H63.092L62.102 4.688L61.886 7.064L62.444 6.686L62.408 7.352L62.192 9.638H61.67L61.4 12.572L61.976 12.194L61.904 12.878L61.724 15.11L61.166 15.146L60.878 18.584C60.854 18.92 60.716 19.202 60.464 19.43C60.212 19.67 59.918 19.79 59.582 19.79H57.296L57.008 17.594ZM70.112 6.272H72.542L71.966 7.946H69.554L70.112 6.272ZM69.482 10.124H71.822L72.326 12.608H70.004L69.482 10.124ZM63.254 10.232H65.594L64.604 12.68H62.3L63.254 10.232ZM62.498 12.914H70.778C71.162 12.914 71.48 13.058 71.732 13.346C71.996 13.622 72.11 13.946 72.074 14.318L71.714 18.548C71.678 18.896 71.534 19.184 71.282 19.412C71.03 19.64 70.736 19.754 70.4 19.754H61.904L62.498 12.914ZM65.756 15.506L65.846 14.516H64.964L64.874 15.506H65.756ZM69.32 15.506L69.392 14.516H68.564L68.492 15.506H69.32ZM65.54 18.044L65.612 17.18H64.712L64.658 18.044H65.54ZM69.086 18.044L69.158 17.18H68.33L68.276 18.044H69.086Z" fill="url(#paint0_linear_1110_8303)"/>
</g>
<defs>
<filter id="filter0_di_1110_8303" x="0.026001" y="0.391998" width="75.9659" height="22.434" filterUnits="userSpaceOnUse" color-interpolation-filters="sRGB">
<feFlood flood-opacity="0" result="BackgroundImageFix"/>
<feColorMatrix in="SourceAlpha" type="matrix" values="0 0 0 0 0 0 0 0 0 0 0 0 0 0 0 0 0 0 127 0" result="hardAlpha"/>
<feOffset/>
<feGaussianBlur stdDeviation="1.5"/>
<feComposite in2="hardAlpha" operator="out"/>
<feColorMatrix type="matrix" values="0 0 0 0 0 0 0 0 0 0 0 0 0 0 0 0 0 0 0.2 0"/>
<feBlend mode="normal" in2="BackgroundImageFix" result="effect1_dropShadow_1110_8303"/>
<feBlend mode="normal" in="SourceGraphic" in2="effect1_dropShadow_1110_8303" result="shape"/>
<feColorMatrix in="SourceAlpha" type="matrix" values="0 0 0 0 0 0 0 0 0 0 0 0 0 0 0 0 0 0 127 0" result="hardAlpha"/>
<feOffset/>
<feGaussianBlur stdDeviation="2"/>
<feComposite in2="hardAlpha" operator="arithmetic" k2="-1" k3="1"/>
<feColorMatrix type="matrix" values="0 0 0 0 1 0 0 0 0 1 0 0 0 0 1 0 0 0 0.25 0"/>
<feBlend mode="normal" in2="shape" result="effect2_innerShadow_1110_8303"/>
</filter>
<linearGradient id="paint0_linear_1110_8303" x1="2" y1="10" x2="74" y2="10" gradientUnits="userSpaceOnUse">
<stop stop-color="#FE5A71"/>
<stop offset="1" stop-color="#F3A69C"/>
</linearGradient>
</defs>
</svg>
