<svg width="100" height="32" viewBox="0 0 100 32" fill="none" xmlns="http://www.w3.org/2000/svg">
<rect width="100" height="32" rx="16" fill="url(#paint0_linear_4610_140)"/>
<rect width="100" height="32" rx="16" fill="url(#paint1_linear_4610_140)"/>
<g opacity="0.9">
<mask id="path-2-outside-1_4610_140" maskUnits="userSpaceOnUse" x="17" y="7" width="65" height="18" fill="black">
<rect fill="white" x="17" y="7" width="65" height="18"/>
<path d="M71.7162 21.51L73.0779 10.4435L75.7083 10.6297L75.5381 12.0266L76.683 10.6763L79.7931 10.9401C80.1541 10.9712 80.443 11.1005 80.6596 11.3282C80.8865 11.5558 81 11.8455 81 12.1973C81 12.2905 80.9948 12.3629 80.9845 12.4146L80.3656 17.5521L74.8572 17.459L74.3466 21.5565L71.7162 21.51ZM78.4934 12.8647L75.4297 12.7251L75.1048 15.3792L78.1839 15.4257L78.4934 12.8647Z"/>
<path d="M61.1995 21.51L62.5611 10.4435L65.1915 10.6297L65.0213 12.0266L66.1663 10.6763L69.2763 10.9401C69.6374 10.9712 69.9262 11.1005 70.1428 11.3282C70.3698 11.5558 70.4832 11.8455 70.4832 12.1973C70.4832 12.2905 70.4781 12.3629 70.4678 12.4146L69.8488 17.5521L64.3405 17.459L63.8299 21.5565L61.1995 21.51ZM67.9766 12.8647L64.913 12.7251L64.588 15.3792L67.6672 15.4257L67.9766 12.8647Z"/>
<path d="M56.8933 21.4945L56.491 19.3526L53.1952 19.2905L52.3287 21.4169L49.7912 21.3703L54.5414 10.4435L57.3729 10.5055L59.9569 21.5565L56.8933 21.4945ZM55.4388 13.7805L54.0462 17.2106L56.0887 17.2417L55.4388 13.7805Z"/>
<path d="M46.1086 14.6341L46.1396 16.3259L47.6869 14.7118L48.3522 16.6364L46.1705 18.8869L46.2015 20.6718L46.0467 21.9135L46.743 20.6874L47.7642 20.7029L47.5167 22.8293L44.453 22.7672C44.2776 22.7672 44.1332 22.7103 44.0198 22.5965C43.9166 22.493 43.8599 22.3533 43.8496 22.1774L43.8341 21.2927L42.4725 22.7051L40.6931 21.9446L41.1109 21.51L40.3217 21.5255L40.1361 23L37.7223 22.9534L37.8925 21.5721L34.0088 21.6341L34.1944 19.8492L38.0936 19.8337L38.1555 19.306L35.5715 19.2594C35.4374 19.2594 35.3188 19.2232 35.2157 19.1508C35.1125 19.068 35.0455 18.9593 35.0145 18.8248L34.8134 17.816L35.5561 16.714L34.6277 16.6984L34.8443 14.9756L36.7165 15.0067L37.0724 14.4789L34.9526 14.4479L35.2002 12.4922L38.2019 12.5388L38.2793 11.8404L35.85 11.8093L36.0821 9.86918L38.5114 9.91574L38.6197 9.01552L40.9406 9.04656L40.6776 11.2195L41.4048 9.96231L43.1533 9.99335L42.9212 11.9335L40.6002 11.8869L40.3681 13.7805L41.1109 12.6009L43.4627 12.6319L43.4937 9.17073L45.861 9L45.8765 12.6785L48.8473 12.7251L48.6152 14.6807L46.1086 14.6341ZM46.7121 12.4922L46.5883 9.90022L48.3986 9.62084L48.5379 12.2284L46.7121 12.4922ZM43.7413 14.6031L38.2019 14.51L38.9601 14.9135L38.8673 15.0532L43.4318 15.1308L43.2152 16.8537L37.7532 16.7605L37.2581 17.5211L38.3721 17.5521L38.434 17.0865L40.8633 17.1175L40.6621 18.7162L41.3429 17.5987L43.1069 17.6297L42.8902 19.3991L40.5848 19.3526L40.5229 19.8182L42.3642 19.8027L42.3177 20.2528L43.8031 18.7317L43.7413 14.6031Z"/>
<path d="M26.8603 11.6386L26.5972 13.7339L31.7497 16.388L30.6202 18.2971L26.3187 16.0931L25.5141 22.6585L23.0384 22.612L24.3846 11.592L19 11.4989L19.263 9.34146L32.9411 9.57428L32.6781 11.7472L26.8603 11.6386Z"/>
</mask>
<path d="M71.7162 21.51L73.0779 10.4435L75.7083 10.6297L75.5381 12.0266L76.683 10.6763L79.7931 10.9401C80.1541 10.9712 80.443 11.1005 80.6596 11.3282C80.8865 11.5558 81 11.8455 81 12.1973C81 12.2905 80.9948 12.3629 80.9845 12.4146L80.3656 17.5521L74.8572 17.459L74.3466 21.5565L71.7162 21.51ZM78.4934 12.8647L75.4297 12.7251L75.1048 15.3792L78.1839 15.4257L78.4934 12.8647Z" fill="white"/>
<path d="M61.1995 21.51L62.5611 10.4435L65.1915 10.6297L65.0213 12.0266L66.1663 10.6763L69.2763 10.9401C69.6374 10.9712 69.9262 11.1005 70.1428 11.3282C70.3698 11.5558 70.4832 11.8455 70.4832 12.1973C70.4832 12.2905 70.4781 12.3629 70.4678 12.4146L69.8488 17.5521L64.3405 17.459L63.8299 21.5565L61.1995 21.51ZM67.9766 12.8647L64.913 12.7251L64.588 15.3792L67.6672 15.4257L67.9766 12.8647Z" fill="white"/>
<path d="M56.8933 21.4945L56.491 19.3526L53.1952 19.2905L52.3287 21.4169L49.7912 21.3703L54.5414 10.4435L57.3729 10.5055L59.9569 21.5565L56.8933 21.4945ZM55.4388 13.7805L54.0462 17.2106L56.0887 17.2417L55.4388 13.7805Z" fill="white"/>
<path d="M46.1086 14.6341L46.1396 16.3259L47.6869 14.7118L48.3522 16.6364L46.1705 18.8869L46.2015 20.6718L46.0467 21.9135L46.743 20.6874L47.7642 20.7029L47.5167 22.8293L44.453 22.7672C44.2776 22.7672 44.1332 22.7103 44.0198 22.5965C43.9166 22.493 43.8599 22.3533 43.8496 22.1774L43.8341 21.2927L42.4725 22.7051L40.6931 21.9446L41.1109 21.51L40.3217 21.5255L40.1361 23L37.7223 22.9534L37.8925 21.5721L34.0088 21.6341L34.1944 19.8492L38.0936 19.8337L38.1555 19.306L35.5715 19.2594C35.4374 19.2594 35.3188 19.2232 35.2157 19.1508C35.1125 19.068 35.0455 18.9593 35.0145 18.8248L34.8134 17.816L35.5561 16.714L34.6277 16.6984L34.8443 14.9756L36.7165 15.0067L37.0724 14.4789L34.9526 14.4479L35.2002 12.4922L38.2019 12.5388L38.2793 11.8404L35.85 11.8093L36.0821 9.86918L38.5114 9.91574L38.6197 9.01552L40.9406 9.04656L40.6776 11.2195L41.4048 9.96231L43.1533 9.99335L42.9212 11.9335L40.6002 11.8869L40.3681 13.7805L41.1109 12.6009L43.4627 12.6319L43.4937 9.17073L45.861 9L45.8765 12.6785L48.8473 12.7251L48.6152 14.6807L46.1086 14.6341ZM46.7121 12.4922L46.5883 9.90022L48.3986 9.62084L48.5379 12.2284L46.7121 12.4922ZM43.7413 14.6031L38.2019 14.51L38.9601 14.9135L38.8673 15.0532L43.4318 15.1308L43.2152 16.8537L37.7532 16.7605L37.2581 17.5211L38.3721 17.5521L38.434 17.0865L40.8633 17.1175L40.6621 18.7162L41.3429 17.5987L43.1069 17.6297L42.8902 19.3991L40.5848 19.3526L40.5229 19.8182L42.3642 19.8027L42.3177 20.2528L43.8031 18.7317L43.7413 14.6031Z" fill="white"/>
<path d="M26.8603 11.6386L26.5972 13.7339L31.7497 16.388L30.6202 18.2971L26.3187 16.0931L25.5141 22.6585L23.0384 22.612L24.3846 11.592L19 11.4989L19.263 9.34146L32.9411 9.57428L32.6781 11.7472L26.8603 11.6386Z" fill="white"/>
<path d="M71.7162 21.51L73.0779 10.4435L75.7083 10.6297L75.5381 12.0266L76.683 10.6763L79.7931 10.9401C80.1541 10.9712 80.443 11.1005 80.6596 11.3282C80.8865 11.5558 81 11.8455 81 12.1973C81 12.2905 80.9948 12.3629 80.9845 12.4146L80.3656 17.5521L74.8572 17.459L74.3466 21.5565L71.7162 21.51ZM78.4934 12.8647L75.4297 12.7251L75.1048 15.3792L78.1839 15.4257L78.4934 12.8647Z" stroke="black" stroke-opacity="0.5" stroke-width="2" style="mix-blend-mode:overlay" mask="url(#path-2-outside-1_4610_140)"/>
<path d="M61.1995 21.51L62.5611 10.4435L65.1915 10.6297L65.0213 12.0266L66.1663 10.6763L69.2763 10.9401C69.6374 10.9712 69.9262 11.1005 70.1428 11.3282C70.3698 11.5558 70.4832 11.8455 70.4832 12.1973C70.4832 12.2905 70.4781 12.3629 70.4678 12.4146L69.8488 17.5521L64.3405 17.459L63.8299 21.5565L61.1995 21.51ZM67.9766 12.8647L64.913 12.7251L64.588 15.3792L67.6672 15.4257L67.9766 12.8647Z" stroke="black" stroke-opacity="0.5" stroke-width="2" style="mix-blend-mode:overlay" mask="url(#path-2-outside-1_4610_140)"/>
<path d="M56.8933 21.4945L56.491 19.3526L53.1952 19.2905L52.3287 21.4169L49.7912 21.3703L54.5414 10.4435L57.3729 10.5055L59.9569 21.5565L56.8933 21.4945ZM55.4388 13.7805L54.0462 17.2106L56.0887 17.2417L55.4388 13.7805Z" stroke="black" stroke-opacity="0.5" stroke-width="2" style="mix-blend-mode:overlay" mask="url(#path-2-outside-1_4610_140)"/>
<path d="M46.1086 14.6341L46.1396 16.3259L47.6869 14.7118L48.3522 16.6364L46.1705 18.8869L46.2015 20.6718L46.0467 21.9135L46.743 20.6874L47.7642 20.7029L47.5167 22.8293L44.453 22.7672C44.2776 22.7672 44.1332 22.7103 44.0198 22.5965C43.9166 22.493 43.8599 22.3533 43.8496 22.1774L43.8341 21.2927L42.4725 22.7051L40.6931 21.9446L41.1109 21.51L40.3217 21.5255L40.1361 23L37.7223 22.9534L37.8925 21.5721L34.0088 21.6341L34.1944 19.8492L38.0936 19.8337L38.1555 19.306L35.5715 19.2594C35.4374 19.2594 35.3188 19.2232 35.2157 19.1508C35.1125 19.068 35.0455 18.9593 35.0145 18.8248L34.8134 17.816L35.5561 16.714L34.6277 16.6984L34.8443 14.9756L36.7165 15.0067L37.0724 14.4789L34.9526 14.4479L35.2002 12.4922L38.2019 12.5388L38.2793 11.8404L35.85 11.8093L36.0821 9.86918L38.5114 9.91574L38.6197 9.01552L40.9406 9.04656L40.6776 11.2195L41.4048 9.96231L43.1533 9.99335L42.9212 11.9335L40.6002 11.8869L40.3681 13.7805L41.1109 12.6009L43.4627 12.6319L43.4937 9.17073L45.861 9L45.8765 12.6785L48.8473 12.7251L48.6152 14.6807L46.1086 14.6341ZM46.7121 12.4922L46.5883 9.90022L48.3986 9.62084L48.5379 12.2284L46.7121 12.4922ZM43.7413 14.6031L38.2019 14.51L38.9601 14.9135L38.8673 15.0532L43.4318 15.1308L43.2152 16.8537L37.7532 16.7605L37.2581 17.5211L38.3721 17.5521L38.434 17.0865L40.8633 17.1175L40.6621 18.7162L41.3429 17.5987L43.1069 17.6297L42.8902 19.3991L40.5848 19.3526L40.5229 19.8182L42.3642 19.8027L42.3177 20.2528L43.8031 18.7317L43.7413 14.6031Z" stroke="black" stroke-opacity="0.5" stroke-width="2" style="mix-blend-mode:overlay" mask="url(#path-2-outside-1_4610_140)"/>
<path d="M26.8603 11.6386L26.5972 13.7339L31.7497 16.388L30.6202 18.2971L26.3187 16.0931L25.5141 22.6585L23.0384 22.612L24.3846 11.592L19 11.4989L19.263 9.34146L32.9411 9.57428L32.6781 11.7472L26.8603 11.6386Z" stroke="black" stroke-opacity="0.5" stroke-width="2" style="mix-blend-mode:overlay" mask="url(#path-2-outside-1_4610_140)"/>
</g>
<defs>
<linearGradient id="paint0_linear_4610_140" x1="0" y1="16" x2="100" y2="16" gradientUnits="userSpaceOnUse">
<stop stop-color="#F1FF2F"/>
<stop offset="1" stop-color="#24DD6E"/>
</linearGradient>
<linearGradient id="paint1_linear_4610_140" x1="70.8333" y1="16.821" x2="6.25407" y2="16.821" gradientUnits="userSpaceOnUse">
<stop stop-color="#FF4448"/>
<stop offset="1" stop-color="#FF6E70"/>
</linearGradient>
</defs>
</svg>
