<svg width="55" height="22" viewBox="0 0 55 22" fill="none" xmlns="http://www.w3.org/2000/svg">
<rect x="0.25" width="54" height="22" rx="11" fill="white" fill-opacity="0.08"/>
<path d="M20.8214 16H13.6785C12.8896 16 12.25 15.312 12.25 14.463V12.5417C12.25 12.3295 12.41 12.1575 12.6071 12.1575H13.3215C13.5187 12.1575 13.6785 12.3295 13.6785 12.5417V13.6945C13.6785 14.119 13.9983 14.463 14.3928 14.463H20.1072C20.5017 14.463 20.8214 14.119 20.8214 13.6945V12.5417C20.8214 12.3295 20.9813 12.1575 21.1786 12.1575H21.8929C22.0901 12.1575 22.25 12.3295 22.25 12.5417V14.463C22.25 15.312 21.6105 16 20.8214 16ZM14.3467 8.46113C14.4911 8.3057 14.7256 8.3057 14.8701 8.46113L16.5359 10.2534V6.38436C16.5359 6.1722 16.6958 6 16.8929 6H17.6072C17.8044 6 17.9644 6.1722 17.9644 6.38436V10.2534L19.6302 8.46113C19.7747 8.3057 20.009 8.3057 20.1535 8.46113L20.677 9.02441C20.8214 9.17987 20.8214 9.43195 20.677 9.58754L17.7272 12.7613C17.7145 12.775 17.485 12.9259 17.2541 12.926C17.0206 12.9262 16.7858 12.7751 16.773 12.7613L13.8232 9.58754C13.6787 9.43194 13.6787 9.17987 13.8232 9.02441L14.3467 8.46113Z" fill="#F1D4FF" fill-opacity="0.8"/>
<path d="M23.77 7.26H32.72V8.19H28.46V9.5C29.6533 10.0733 30.8933 10.75 32.18 11.53L31.61 12.39C30.3233 11.5567 29.2733 10.93 28.46 10.51V16.03H27.51V8.19H23.77V7.26ZM34.34 7.53H36.21V6.77H37.13V7.53H38.86V8.39H37.13V9.11H39.31C39.27 8.39 39.25 7.60667 39.25 6.76H40.17C40.17 7.62667 40.19 8.41 40.23 9.11H42.67V9.98H40.28C40.34 10.8067 40.42 11.48 40.52 12L40.63 12.53C40.9233 11.8633 41.1633 11.13 41.35 10.33L42.2 10.71C41.8933 11.93 41.4933 12.96 41 13.8C41.0533 13.9533 41.12 14.1 41.2 14.24C41.4467 14.7067 41.63 14.94 41.75 14.94C41.85 14.94 41.9567 14.4533 42.07 13.48L42.88 13.91C42.6467 15.2433 42.3067 15.91 41.86 15.91C41.5067 15.91 41.12 15.61 40.7 15.01C40.6133 14.89 40.5333 14.7533 40.46 14.6C39.9667 15.2067 39.4067 15.6833 38.78 16.03L38.27 15.27C38.9633 14.89 39.5567 14.33 40.05 13.59C39.8967 13.1167 39.7733 12.6567 39.68 12.21C39.5333 11.55 39.43 10.8067 39.37 9.98H33.82V9.11H36.21V8.39H34.34V7.53ZM41.19 6.86C41.7033 7.43333 42.09 7.92333 42.35 8.33L41.64 8.83C41.3667 8.39 40.9767 7.88667 40.47 7.32L41.19 6.86ZM38.86 14.69L37.38 14.87V16H36.45V14.97C35.7633 15.03 35.0433 15.09 34.29 15.15L34.18 14.27C34.9667 14.23 35.7233 14.18 36.45 14.12V13.39H34.6L34.42 12.63C34.6533 12.3433 34.8767 11.99 35.09 11.57H34.12V10.73H35.46L35.69 10.06L36.59 10.23C36.55 10.35 36.49 10.5167 36.41 10.73H38.91V11.57H36.06C35.9067 11.8967 35.7133 12.24 35.48 12.6H36.45V11.94H37.38V12.6H38.81V13.39H37.38V14.03C37.9933 13.97 38.4867 13.9167 38.86 13.87V14.69Z" fill="#F1D4FF" fill-opacity="0.8"/>
</svg>
