<svg width="8" height="10" viewBox="0 0 8 10" fill="none" xmlns="http://www.w3.org/2000/svg">
<path d="M4.01 10H4C3.825 10 3.66 9.93 3.54 9.8C3.445 9.7 2.59 8.795 1.735 7.655C0.585 6.11 0 4.875 0 3.995C0 1.79 1.795 0 4 0C6.205 0 8 1.79 8 3.995C8 4.53 7.795 5.185 7.385 5.945C6.995 6.675 6.405 7.525 5.63 8.465L5.625 8.47L4.475 9.78C4.36 9.92 4.19 10 4.01 10ZM4 5.86C5.035 5.86 5.87 5.02 5.87 3.99C5.87 2.96 5.035 2.125 4 2.125C2.965 2.125 2.125 2.96 2.125 3.995C2.125 5.03 2.965 5.86 4 5.86Z" fill="white" fill-opacity="0.4"/>
</svg>
