<svg width="25" height="18" viewBox="0 0 25 18" fill="none" xmlns="http://www.w3.org/2000/svg">
<path d="M0 9C0 4.02944 4.02944 0 9 0H25V18H9C4.02944 18 0 13.9706 0 9Z" fill="url(#paint0_linear_1110_8476)"/>
<path d="M0 9C0 4.02944 4.02944 0 9 0H25V18H9C4.02944 18 0 13.9706 0 9Z" fill="url(#paint1_linear_1110_8476)"/>
<path d="M17.5714 14H10.4285C9.63964 14 9 13.312 9 12.463V10.5417C9 10.3295 9.16 10.1575 9.35707 10.1575H10.0715C10.2687 10.1575 10.4285 10.3295 10.4285 10.5417V11.6945C10.4285 12.119 10.7483 12.463 11.1428 12.463H16.8572C17.2517 12.463 17.5714 12.119 17.5714 11.6945V10.5417C17.5714 10.3295 17.7313 10.1575 17.9286 10.1575H18.6429C18.8401 10.1575 19 10.3295 19 10.5417V12.463C19 13.312 18.3605 14 17.5714 14ZM11.0967 6.46113C11.2411 6.3057 11.4756 6.3057 11.6201 6.46113L13.2859 8.25342V4.38436C13.2859 4.1722 13.4458 4 13.6429 4H14.3572C14.5544 4 14.7144 4.1722 14.7144 4.38436V8.25342L16.3802 6.46113C16.5247 6.3057 16.759 6.3057 16.9035 6.46113L17.427 7.02441C17.5714 7.17987 17.5714 7.43195 17.427 7.58754L14.4772 10.7613C14.4645 10.775 14.235 10.9259 14.0041 10.926C13.7706 10.9262 13.5358 10.7751 13.523 10.7613L10.5732 7.58754C10.4287 7.43194 10.4287 7.17987 10.5732 7.02441L11.0967 6.46113Z" fill="white" fill-opacity="0.75"/>
<defs>
<linearGradient id="paint0_linear_1110_8476" x1="0" y1="12.3179" x2="25" y2="12.3179" gradientUnits="userSpaceOnUse">
<stop stop-color="#FFB990"/>
<stop offset="1" stop-color="#FF86CC"/>
</linearGradient>
<linearGradient id="paint1_linear_1110_8476" x1="17.7083" y1="9.46183" x2="1.56352" y2="9.46183" gradientUnits="userSpaceOnUse">
<stop stop-color="#D47361"/>
<stop offset="1" stop-color="#CF2D6B"/>
</linearGradient>
</defs>
</svg>
