<svg width="24" height="24" viewBox="0 0 24 24" fill="none" xmlns="http://www.w3.org/2000/svg">
<path d="M8.28311 8.25H8.01451C7.11961 8.25 6.67235 8.25 6.30943 8.41426C5.98953 8.55905 5.71699 8.79223 5.52284 9.08679C5.30259 9.42095 5.22855 9.86612 5.08143 10.7567L4.21416 16.0067L4.21381 16.0087C4.01548 17.2092 3.91626 17.8099 4.08858 18.2779C4.23987 18.6889 4.52961 19.0333 4.90653 19.2514C5.33605 19.5 5.9394 19.5 7.147 19.5H16.8527C18.0603 19.5 18.6647 19.5 19.0942 19.2514C19.4711 19.0333 19.7602 18.6889 19.9115 18.2779C20.0837 17.81 19.9845 17.2097 19.7864 16.0101L19.7856 16.0067L18.9183 10.7567C18.7712 9.86612 18.6975 9.42095 18.4773 9.08679C18.2831 8.79223 18.0104 8.55905 17.6905 8.41426C17.3276 8.25 16.8806 8.25 15.9857 8.25H15.7169M8.28311 8.25H15.7169M8.28311 8.25C8.28311 6.17893 9.94721 4.5 12 4.5C14.0528 4.5 15.7169 6.17893 15.7169 8.25" stroke="#5D6766" stroke-width="1.5" stroke-linecap="round" stroke-linejoin="round"/>
</svg>
