<svg width="63" height="11" viewBox="0 0 63 11" fill="none" xmlns="http://www.w3.org/2000/svg">
<path d="M5.5 0L6.94507 3.51103L10.7308 3.80041L7.83817 6.25972L8.73282 9.94959L5.5 7.9585L2.26718 9.94959L3.16183 6.25972L0.269189 3.80041L4.05493 3.51103L5.5 0Z" fill="#F8830E"/>
<path d="M18.5 0L19.9451 3.51103L23.7308 3.80041L20.8382 6.25972L21.7328 9.94959L18.5 7.9585L15.2672 9.94959L16.1618 6.25972L13.2692 3.80041L17.0549 3.51103L18.5 0Z" fill="#F8830E"/>
<path d="M31.5 0L32.9451 3.51103L36.7308 3.80041L33.8382 6.25972L34.7328 9.94959L31.5 7.9585L28.2672 9.94959L29.1618 6.25972L26.2692 3.80041L30.0549 3.51103L31.5 0Z" fill="#F8830E"/>
<path d="M44.5 0L45.9451 3.51103L49.7308 3.80041L46.8382 6.25972L47.7328 9.94959L44.5 7.9585L41.2672 9.94959L42.1618 6.25972L39.2692 3.80041L43.0549 3.51103L44.5 0Z" fill="#F8830E"/>
<path d="M57.5 0L58.9451 3.51103L62.7308 3.80041L59.8382 6.25972L60.7328 9.94959L57.5 7.9585L54.2672 9.94959L55.1618 6.25972L52.2692 3.80041L56.0549 3.51103L57.5 0Z" fill="#F8830E"/>
</svg>
