<svg width="24" height="24" viewBox="0 0 24 24" fill="none" xmlns="http://www.w3.org/2000/svg">
<path d="M12 19C11.6228 19.6483 11.6226 19.6481 11.6224 19.648L11.6218 19.6477L11.6202 19.6467L11.6151 19.6437L11.5973 19.6332C11.5822 19.6243 11.5607 19.6114 11.5331 19.5947C11.478 19.5614 11.3987 19.5127 11.2987 19.4495C11.0988 19.3232 10.8156 19.1387 10.4769 18.9022C9.80088 18.4302 8.89654 17.7465 7.98897 16.9017C6.21585 15.251 4.25 12.8195 4.25 10.04C4.25 8.67663 4.63159 7.56101 5.29028 6.74098C5.94856 5.92145 6.84999 5.44048 7.80475 5.29639C9.32117 5.06755 10.9436 5.68668 12 7.0653C13.0564 5.68668 14.6788 5.06755 16.1952 5.29639C17.15 5.44048 18.0514 5.92145 18.7097 6.74098C19.3684 7.56101 19.75 8.67663 19.75 10.04C19.75 12.8195 17.7841 15.251 16.011 16.9017C15.1035 17.7465 14.1991 18.4302 13.5231 18.9022C13.1844 19.1387 12.9012 19.3232 12.7013 19.4495C12.6013 19.5127 12.522 19.5614 12.4669 19.5947C12.4393 19.6114 12.4178 19.6243 12.4027 19.6332L12.3849 19.6437L12.3798 19.6467L12.3782 19.6477L12.3776 19.648C12.3774 19.6481 12.3772 19.6483 12 19ZM12 19L11.6228 19.6483L12 19.8677L12.3772 19.6483L12 19Z" stroke="#5D6766" stroke-width="1.5"/>
</svg>
