<svg width="76" height="23" viewBox="0 0 76 23" fill="none" xmlns="http://www.w3.org/2000/svg">
<g filter="url(#filter0_di_1110_8917)">
<path d="M4.628 3.716H17.408C17.804 3.716 18.128 3.86 18.38 4.148C18.632 4.424 18.746 4.754 18.722 5.138L17.552 18.314C17.528 18.65 17.39 18.932 17.138 19.16C16.898 19.388 16.61 19.502 16.274 19.502H12.458L12.296 17.666H13.988L15.014 6.11H7.796L6.644 19.502H3.242L4.628 3.716ZM8.408 8.774L8.588 6.92H13.358L14.366 6.218L14.294 6.92L14.114 8.774H9.344L8.354 9.458L8.408 8.774ZM8.282 9.512H12.62C13.004 9.512 13.322 9.656 13.574 9.944C13.838 10.232 13.952 10.568 13.916 10.952L13.484 15.83C13.46 16.166 13.322 16.448 13.07 16.676C12.818 16.904 12.524 17.018 12.188 17.018H7.598L8.282 9.512ZM11.108 15.164L11.432 11.366H10.532L10.172 15.164H11.108ZM27.164 6.596C27.2 6.248 27.344 5.96 27.596 5.732C27.848 5.504 28.142 5.39 28.478 5.39H31.376L31.286 3.446H34.526L34.67 5.39H35.138L35.048 3.626H36.668L36.74 5.39H36.974L36.758 7.964H35.876L35.84 10.646L36.578 10.016L36.29 13.274L35.768 13.706L35.678 19.16H33.032L33.068 16.046L32.438 16.586L32.726 13.328L33.122 12.968L33.212 7.964H29.738L29.648 9.098H31.376C31.76 9.098 32.078 9.242 32.33 9.53C32.594 9.806 32.708 10.13 32.672 10.502L32.024 17.954C32 18.29 31.862 18.572 31.61 18.8C31.358 19.04 31.064 19.16 30.728 19.16H29.396L29.306 17.072H29.648L30.116 11.636H29.414L28.766 19.16H26.066L27.164 6.596ZM21.08 19.16L21.296 16.802L21.908 16.748L22.592 8.864L21.908 9.332L21.962 8.63L22.16 6.344H22.79L23.024 3.626H27.218L26.264 4.274L26.102 6.146L26.804 5.678L26.714 6.38L26.534 8.63H25.886L25.238 16.172L25.868 15.74L25.796 16.388L25.616 18.674L21.98 19.07L21.026 19.754L21.08 19.16ZM39.62 15.038L41.294 10.988H40.088L40.232 9.566L42.41 3.698H46.046L44.12 8.684H45.902L43.148 14.624H44.912L44.732 16.478H39.494L39.62 15.038ZM47.648 17.18H50.186L50.96 8.09H49.736L49.376 9.494H46.082L47.504 3.752H51.212L50.672 5.984H53.624C53.972 5.984 54.266 6.11 54.506 6.362C54.746 6.614 54.848 6.914 54.812 7.262L53.822 18.422C53.798 18.734 53.672 18.992 53.444 19.196C53.216 19.4 52.946 19.502 52.634 19.502H48.134L47.648 17.18ZM46.37 10.466H49.16L49.142 15.308H46.352L46.37 10.466ZM39.368 17.396L44.75 17.072L44.588 19.196L39.188 19.52L39.368 17.396ZM62.426 17.288H62.948L63.128 15.362L62.408 15.866L62.48 15.164L62.678 13.04L63.326 12.95L63.632 9.566L62.912 10.07L62.984 9.368L63.164 7.118H63.848L64.154 3.716H67.862L66.854 4.418L66.656 6.74L67.142 6.416L67.07 7.118L66.854 9.368H66.422L66.17 12.23L66.638 11.906L66.584 12.572L66.404 14.822L65.936 14.858L65.63 18.314C65.618 18.65 65.486 18.932 65.234 19.16C64.982 19.388 64.682 19.502 64.334 19.502H62.624L62.426 17.288ZM67.592 5.39H68.618L69.05 3.716H72.362L71.39 4.418L71.102 5.39H71.642C72.026 5.39 72.344 5.534 72.596 5.822C72.86 6.098 72.98 6.428 72.956 6.812L71.948 18.314C71.912 18.65 71.768 18.932 71.516 19.16C71.264 19.388 70.97 19.502 70.634 19.502H66.35L67.592 5.39ZM58.34 4.112H61.778C62.162 4.112 62.48 4.256 62.732 4.544C62.984 4.832 63.092 5.168 63.056 5.552L61.994 17.954C61.958 18.302 61.814 18.59 61.562 18.818C61.322 19.046 61.034 19.16 60.698 19.16H57.026L58.34 4.112ZM60.032 16.928L60.95 6.236H60.194L59.258 16.928H60.032ZM70.562 11.294L70.868 7.64H69.536L69.23 11.294H70.562ZM70.058 17.126L70.364 13.508H69.032L68.708 17.126H70.058Z" fill="url(#paint0_linear_1110_8917)"/>
</g>
<defs>
<filter id="filter0_di_1110_8917" x="0.241943" y="0.446014" width="75.75" height="22.308" filterUnits="userSpaceOnUse" color-interpolation-filters="sRGB">
<feFlood flood-opacity="0" result="BackgroundImageFix"/>
<feColorMatrix in="SourceAlpha" type="matrix" values="0 0 0 0 0 0 0 0 0 0 0 0 0 0 0 0 0 0 127 0" result="hardAlpha"/>
<feOffset/>
<feGaussianBlur stdDeviation="1.5"/>
<feComposite in2="hardAlpha" operator="out"/>
<feColorMatrix type="matrix" values="0 0 0 0 0 0 0 0 0 0 0 0 0 0 0 0 0 0 0.2 0"/>
<feBlend mode="normal" in2="BackgroundImageFix" result="effect1_dropShadow_1110_8917"/>
<feBlend mode="normal" in="SourceGraphic" in2="effect1_dropShadow_1110_8917" result="shape"/>
<feColorMatrix in="SourceAlpha" type="matrix" values="0 0 0 0 0 0 0 0 0 0 0 0 0 0 0 0 0 0 127 0" result="hardAlpha"/>
<feOffset/>
<feGaussianBlur stdDeviation="2"/>
<feComposite in2="hardAlpha" operator="arithmetic" k2="-1" k3="1"/>
<feColorMatrix type="matrix" values="0 0 0 0 1 0 0 0 0 1 0 0 0 0 1 0 0 0 0.25 0"/>
<feBlend mode="normal" in2="shape" result="effect2_innerShadow_1110_8917"/>
</filter>
<linearGradient id="paint0_linear_1110_8917" x1="2" y1="10" x2="74" y2="10" gradientUnits="userSpaceOnUse">
<stop stop-color="#FE5A71"/>
<stop offset="1" stop-color="#F3A69C"/>
</linearGradient>
</defs>
</svg>
