<svg width="76" height="23" viewBox="0 0 76 23" fill="none" xmlns="http://www.w3.org/2000/svg">
<g filter="url(#filter0_di_1110_10129)">
<path d="M5.204 13.238H3.314L5.78 7.892H4.736L3.728 8.594L3.782 7.892L4.016 5.354H6.968L7.868 3.41H12.206L11.198 4.112L10.604 5.354H17.804L18.686 4.724L18.65 5.354L18.434 7.892H9.434L8.372 10.16H9.128L8.336 19.106H4.7L5.204 13.238ZM8.966 19.106L9.164 16.874H11.684L11.972 13.364H10.622L9.632 14.066L9.686 13.364L9.92 11.15H12.17L12.386 8.594H16.976L15.986 9.296L15.842 11.15H16.904L17.858 10.466L17.822 11.15L17.606 13.364H15.626L15.32 16.874H16.742L17.732 16.19L17.66 16.874L17.498 19.106H9.884L8.912 19.79L8.966 19.106ZM21.44 15.02L23.114 10.988H21.944L22.07 9.566L24.212 3.716H27.866L25.922 8.684H27.74L24.968 14.606H26.732L26.588 16.442H21.332L21.44 15.02ZM31.592 17.648L27.29 18.566L27.506 15.938L31.196 15.164L30.89 13.148H28.766L27.776 13.85L27.848 13.13L28.064 10.898H30.548L30.278 9.188H29.126L28.136 9.854L28.19 9.152L28.388 6.938H29.936L29.468 3.806H33.338L33.824 6.938H36.002L36.794 6.398H34.238L33.788 4.112H36.452L36.848 6.344L36.956 6.29L36.884 6.974L36.668 9.188H34.166L34.454 10.898H35.66L36.65 10.232L36.578 10.898L36.362 13.148H34.796L34.976 14.372L36.164 14.102L35.93 16.712L35.354 16.856L35.768 19.502H31.88L31.592 17.648ZM21.206 17.378L26.588 17.036L26.408 19.16L21.026 19.484L21.206 17.378ZM47.918 13.706H47.324L46.37 14.372L46.442 13.706L46.586 12.014H48.062L48.134 11.294H47.216L46.28 11.978L46.316 11.294L46.478 9.656H48.278L48.332 8.936H47.72L46.784 9.602L46.856 8.936L47 7.244H48.458L48.548 6.434H47.756L46.802 7.118L46.874 6.416L47.036 4.58H48.008L47.864 3.716H50.096L50.24 4.58H51.734L52.004 3.716H54.218L53.93 4.562H54.056L54.956 3.932L54.902 4.562L54.74 6.434H52.562L52.472 7.244H53.156C53.54 7.244 53.864 7.388 54.128 7.676C54.392 7.952 54.506 8.282 54.47 8.666L54.434 9.152L54.65 9.008L54.596 9.656L54.434 11.294H54.236L54.128 12.518C54.104 12.854 53.966 13.136 53.714 13.364C53.462 13.592 53.162 13.706 52.814 13.706H51.986L51.482 19.484H49.664L50.186 13.706H49.772L49.268 19.484H47.414L47.918 13.706ZM41.492 14.588L42.14 7.136H44.552L44.624 6.272H41.798L41.06 14.732H39.224L40.178 3.752H45.146C45.518 3.752 45.836 3.896 46.1 4.184C46.364 4.472 46.484 4.808 46.46 5.192L45.614 14.732H43.886L44.516 7.514L44.12 7.784L43.616 14.588L43.598 14.642L45.092 19.484H42.95L42.338 17.378L41.384 19.484H39.044L41.492 14.588ZM50.636 7.244L50.708 6.434H50.384L50.294 7.244H50.636ZM50.42 9.656L50.492 8.936H50.15L50.096 9.656H50.42ZM52.562 9.656L52.616 8.936H52.31L52.274 9.656H52.562ZM50.222 12.014L50.294 11.294H49.97L49.898 12.014H50.222ZM52.364 12.014L52.4 11.294H52.148L52.058 12.014H52.364ZM52.094 14.372H53.678L53.498 19.34H51.914L52.094 14.372ZM46.154 14.408H47.72L47.072 19.358H45.506L46.154 14.408ZM59.258 3.698H62.624L62.174 5.084H63.578L63.416 7.154H61.454L61.22 7.946H57.818L59.258 3.698ZM67.034 17.63L63.092 18.44L63.326 15.92L66.656 15.218L66.332 13.13H64.586L63.632 13.796L63.704 13.094L63.884 10.988H66.008L65.72 9.044H64.964L63.992 9.728L64.064 9.026L64.244 6.938H65.396L64.892 3.788H68.762L69.248 6.938H71.858L72.794 6.29L72.758 6.938L72.56 9.044H69.59L69.896 10.988H71.498L72.452 10.34L72.38 10.988L72.182 13.13H70.238L70.418 14.426L72.02 14.102L71.768 16.64L70.796 16.82L71.21 19.502H67.304L67.034 17.63ZM69.59 4.112H72.272L72.686 6.344H70.076L69.59 4.112ZM59.384 19.502C58.988 19.502 58.664 19.364 58.412 19.088C58.16 18.812 58.046 18.482 58.07 18.098L58.358 14.678H58.124L57.188 15.308L57.242 14.606L57.44 12.608H58.556L58.736 10.682H58.664L57.692 11.384L57.746 10.682L57.926 8.63H62.264L63.236 7.946L63.164 8.63L63.02 10.682H61.922L61.778 12.608H62.066L63.002 11.942L62.93 12.644L62.75 14.678H61.58L61.364 17.126H62.408L61.634 19.502H59.384Z" fill="url(#paint0_linear_1110_10129)"/>
</g>
<defs>
<filter id="filter0_di_1110_10129" x="0.313965" y="0.410004" width="75.48" height="22.38" filterUnits="userSpaceOnUse" color-interpolation-filters="sRGB">
<feFlood flood-opacity="0" result="BackgroundImageFix"/>
<feColorMatrix in="SourceAlpha" type="matrix" values="0 0 0 0 0 0 0 0 0 0 0 0 0 0 0 0 0 0 127 0" result="hardAlpha"/>
<feOffset/>
<feGaussianBlur stdDeviation="1.5"/>
<feComposite in2="hardAlpha" operator="out"/>
<feColorMatrix type="matrix" values="0 0 0 0 0 0 0 0 0 0 0 0 0 0 0 0 0 0 0.2 0"/>
<feBlend mode="normal" in2="BackgroundImageFix" result="effect1_dropShadow_1110_10129"/>
<feBlend mode="normal" in="SourceGraphic" in2="effect1_dropShadow_1110_10129" result="shape"/>
<feColorMatrix in="SourceAlpha" type="matrix" values="0 0 0 0 0 0 0 0 0 0 0 0 0 0 0 0 0 0 127 0" result="hardAlpha"/>
<feOffset/>
<feGaussianBlur stdDeviation="2"/>
<feComposite in2="hardAlpha" operator="arithmetic" k2="-1" k3="1"/>
<feColorMatrix type="matrix" values="0 0 0 0 1 0 0 0 0 1 0 0 0 0 1 0 0 0 0.25 0"/>
<feBlend mode="normal" in2="shape" result="effect2_innerShadow_1110_10129"/>
</filter>
<linearGradient id="paint0_linear_1110_10129" x1="2" y1="10" x2="74" y2="10" gradientUnits="userSpaceOnUse">
<stop stop-color="#FE5A71"/>
<stop offset="1" stop-color="#F3A69C"/>
</linearGradient>
</defs>
</svg>
